# xmcd
#
# Track frame offsets:
# 150
# 21440
# 43365
# 63881
# 87408
# 105660
# 127979
# 151496
# 169783
# 191771
# 210743
#
# Disc length: 3090 seconds
#
#
# Revision: 0
# Processed by: cddbd v1.5.1PL2 Copyright (c) Steve Scherf et al.
# Submitted via: FreeRIP 2.945 
#
DISCID=990c100b
DTITLE=Rod Stewart - Greatest Hits Vol2 Homemade
DYEAR=1990
DGENRE=Acid
TTITLE0=Baby Jane
TTITLE1=People Get Ready
TTITLE2=Some Guys Have All The Luck
TTITLE3=Infatuation
TTITLE4=Love Touch
TTITLE5=Lost In You
TTITLE6=My Heart Can't Tell You No
TTITLE7=Forever Young
TTITLE8=I Don't Want To Talk About It
TTITLE9=This Old Heart Of Mine
TTITLE10=Down Town Train
EXTD=
EXTT0=
EXTT1=
EXTT2=
EXTT3=
EXTT4=
EXTT5=
EXTT6=
EXTT7=
EXTT8=
EXTT9=
EXTT10=
PLAYORDER=
